<svg width="10" height="18" viewBox="0 0 10 18" fill="none" xmlns="http://www.w3.org/2000/svg">
<path d="M6.208 5.468H7.997C8.24505 5.46818 8.48918 5.52987 8.70754 5.64756C8.9259 5.76524 9.11167 5.93523 9.24821 6.14232C9.38475 6.34941 9.4678 6.58713 9.48993 6.83419C9.51205 7.08125 9.47257 7.32994 9.375 7.558L5.415 16.801C5.3194 17.0223 5.15049 17.204 4.93668 17.3154C4.72288 17.4267 4.47723 17.4611 4.24107 17.4126C4.00491 17.3641 3.79265 17.2358 3.64002 17.0492C3.48738 16.8626 3.40368 16.6291 3.403 16.388V9.468L1.95 9.423C1.56091 9.41002 1.1921 9.24628 0.921517 8.96637C0.650937 8.68646 0.499784 8.31231 0.5 7.923V2C0.5 1.60218 0.658035 1.22064 0.93934 0.93934C1.22064 0.658035 1.60218 0.5 2 0.5L4.708 0.5C5.10582 0.5 5.48736 0.658035 5.76866 0.93934C6.04996 1.22064 6.208 1.60218 6.208 2V5.468Z" fill="#646464"/>
</svg>
