<svg width="35" height="38" viewBox="0 0 35 38" fill="none" xmlns="http://www.w3.org/2000/svg">
<path d="M19.2617 13.4077H21.8706C22.2324 13.408 22.5884 13.5057 22.9068 13.692C23.2253 13.8783 23.4962 14.1475 23.6953 14.4754C23.8944 14.8033 24.0155 15.1796 24.0478 15.5708C24.0801 15.962 24.0225 16.3558 23.8802 16.7169L18.1052 31.3516C17.9658 31.702 17.7195 31.9896 17.4077 32.166C17.0959 32.3424 16.7376 32.3967 16.3932 32.32C16.0488 32.2432 15.7393 32.04 15.5167 31.7446C15.2941 31.4491 15.172 31.0794 15.171 30.6977V19.741L13.0521 19.6698C12.4847 19.6492 11.9468 19.39 11.5522 18.9468C11.1576 18.5036 10.9372 17.9112 10.9375 17.2948V7.91669C10.9375 7.2868 11.168 6.68271 11.5782 6.23731C11.9884 5.79191 12.5448 5.54169 13.125 5.54169H17.0742C17.6543 5.54169 18.2107 5.79191 18.621 6.23731C19.0312 6.68271 19.2617 7.2868 19.2617 7.91669V13.4077Z" fill="white"/>
</svg>
