<svg width="22" height="22" viewBox="0 0 22 22" fill="none" xmlns="http://www.w3.org/2000/svg">
<path fill-rule="evenodd" clip-rule="evenodd" d="M7.21875 7.55838C6.94525 7.55838 6.68294 7.44973 6.48955 7.25633C6.29615 7.06293 6.1875 6.80063 6.1875 6.52713V5.5C5.64049 5.5 5.11589 5.7173 4.72909 6.1041C4.3423 6.49089 4.125 7.01549 4.125 7.5625V8.9375H17.875V7.5625C17.875 7.01549 17.6577 6.49089 17.2709 6.1041C16.8841 5.7173 16.3595 5.5 15.8125 5.5V6.53125C15.8125 6.80476 15.7038 7.06706 15.5105 7.26046C15.3171 7.45385 15.0548 7.5625 14.7812 7.5625C14.5077 7.5625 14.2454 7.45385 14.052 7.26046C13.8587 7.06706 13.75 6.80476 13.75 6.53125V5.5H8.25V6.52713C8.25 6.80063 8.14135 7.06293 7.94795 7.25633C7.75456 7.44973 7.49225 7.55838 7.21875 7.55838ZM13.75 3.4375H8.25V2.4035C8.25 2.13 8.14135 1.8677 7.94795 1.6743C7.75456 1.4809 7.49225 1.37225 7.21875 1.37225C6.94525 1.37225 6.68294 1.4809 6.48955 1.6743C6.29615 1.8677 6.1875 2.13 6.1875 2.4035V3.4375C5.09348 3.4375 4.04427 3.8721 3.27068 4.64569C2.4971 5.41928 2.0625 6.46849 2.0625 7.5625V15.8125C2.0625 16.9065 2.4971 17.9557 3.27068 18.7293C4.04427 19.5029 5.09348 19.9375 6.1875 19.9375H15.8125C16.9065 19.9375 17.9557 19.5029 18.7293 18.7293C19.5029 17.9557 19.9375 16.9065 19.9375 15.8125V7.5625C19.9375 6.46849 19.5029 5.41928 18.7293 4.64569C17.9557 3.8721 16.9065 3.4375 15.8125 3.4375V2.40625C15.8125 2.13275 15.7038 1.87045 15.5105 1.67705C15.3171 1.48365 15.0548 1.375 14.7812 1.375C14.5077 1.375 14.2454 1.48365 14.052 1.67705C13.8587 1.87045 13.75 2.13275 13.75 2.40625V3.4375ZM4.125 11V15.8125C4.125 16.3595 4.3423 16.8841 4.72909 17.2709C5.11589 17.6577 5.64049 17.875 6.1875 17.875H15.8125C16.3595 17.875 16.8841 17.6577 17.2709 17.2709C17.6577 16.8841 17.875 16.3595 17.875 15.8125V11H4.125Z" fill="#646464"/>
</svg>
