<svg width="20" height="20" viewBox="0 0 20 20" fill="none" xmlns="http://www.w3.org/2000/svg">
<path d="M15 2.5C15.6377 2.49996 16.2513 2.7436 16.7152 3.18107C17.1792 3.61854 17.4584 4.21676 17.4958 4.85333L17.5 5V15C17.5 15.6377 17.2564 16.2513 16.8189 16.7152C16.3815 17.1792 15.7832 17.4584 15.1467 17.4958L15 17.5H5C4.36232 17.5 3.74874 17.2564 3.28478 16.8189C2.82083 16.3815 2.54158 15.7832 2.50417 15.1467L2.5 15V5C2.49996 4.36232 2.7436 3.74874 3.18107 3.28478C3.61854 2.82083 4.21676 2.54158 4.85333 2.50417L5 2.5H15ZM12.5 4.16667H5C4.79589 4.16669 4.59889 4.24163 4.44636 4.37726C4.29383 4.5129 4.19638 4.69979 4.1725 4.9025L4.16667 5V15C4.16669 15.2041 4.24163 15.4011 4.37726 15.5536C4.5129 15.7062 4.69979 15.8036 4.9025 15.8275L5 15.8333H12.5V4.16667ZM9.75583 7.74417C9.89931 7.88766 9.98551 8.07858 9.99824 8.2811C10.011 8.48362 9.94938 8.68383 9.825 8.84417L9.75583 8.9225L8.67917 10L9.75583 11.0775C9.89931 11.221 9.98551 11.4119 9.99824 11.6144C10.011 11.817 9.94938 12.0172 9.825 12.1775L9.75583 12.2558C9.61234 12.3993 9.42142 12.4855 9.2189 12.4982C9.01638 12.511 8.81617 12.4494 8.65583 12.325L8.5775 12.2558L6.91083 10.5892C6.76735 10.4457 6.68116 10.2548 6.66843 10.0522C6.65569 9.84971 6.71729 9.6495 6.84167 9.48917L6.91083 9.41083L8.5775 7.74417C8.73377 7.58794 8.9457 7.50018 9.16667 7.50018C9.38764 7.50018 9.59956 7.58794 9.75583 7.74417Z" fill="#FF7E7E"/>
</svg>
