<svg width="22" height="22" viewBox="0 0 22 22" fill="none" xmlns="http://www.w3.org/2000/svg">
<path d="M12.3749 10.0833C13.2258 10.0833 14.0419 9.7453 14.6436 9.14362C15.2452 8.54194 15.5833 7.72589 15.5833 6.87499C15.5833 6.02409 15.2452 5.20803 14.6436 4.60636C14.0419 4.00468 13.2258 3.66666 12.3749 3.66666M12.0477 18.3333H3.5355C2.595 18.3333 1.83325 17.6302 1.83325 16.7622C1.83325 14.5924 3.739 12.8333 6.08934 12.8333H9.49384C10.4051 12.8301 11.2958 13.104 12.0477 13.6189M17.4166 12.8333V18.3333M20.1666 15.5833H14.6666M10.9999 6.87499C10.9999 7.72589 10.6619 8.54194 10.0602 9.14362C9.45854 9.7453 8.64249 10.0833 7.79159 10.0833C6.94068 10.0833 6.12463 9.7453 5.52295 9.14362C4.92127 8.54194 4.58325 7.72589 4.58325 6.87499C4.58325 6.02409 4.92127 5.20803 5.52295 4.60636C6.12463 4.00468 6.94068 3.66666 7.79159 3.66666C8.64249 3.66666 9.45854 4.00468 10.0602 4.60636C10.6619 5.20803 10.9999 6.02409 10.9999 6.87499Z" stroke="#646464" stroke-width="1.5" stroke-linecap="round" stroke-linejoin="round"/>
</svg>
