<svg width="21" height="22" viewBox="0 0 21 22" fill="none" xmlns="http://www.w3.org/2000/svg">
<path d="M1.75 11.187C1.75 9.08875 1.75 8.04008 2.205 7.17108C2.65825 6.30116 3.48862 5.76216 5.1485 4.68233L6.8985 3.54475C8.65287 2.4035 9.5305 1.83333 10.5 1.83333C11.4695 1.83333 12.3462 2.4035 14.1015 3.54475L15.8515 4.68233C17.5114 5.76216 18.3418 6.30116 18.7959 7.17108C19.25 8.041 19.25 9.08875 19.25 11.1861V12.5812C19.25 16.1562 19.25 17.9447 18.2245 19.0557C17.199 20.1667 15.5496 20.1667 12.25 20.1667H8.75C5.45038 20.1667 3.80012 20.1667 2.7755 19.0557C1.75087 17.9447 1.75 16.1572 1.75 12.5812V11.187Z" stroke="white" stroke-width="1.1875"/>
<path d="M7.875 14.6667C8.61875 15.2442 9.52437 15.5833 10.5 15.5833C11.4756 15.5833 12.3812 15.2442 13.125 14.6667" stroke="white" stroke-width="1.1875" stroke-linecap="round"/>
</svg>
