<svg width="24" height="24" viewBox="0 0 24 24" fill="none" xmlns="http://www.w3.org/2000/svg">
<path d="M2.9662 9.46875C2.83973 9.46987 2.7152 9.43753 2.60526 9.375C2.52463 9.32968 2.45385 9.26873 2.39705 9.19572C2.34026 9.12271 2.2986 9.03911 2.2745 8.9498C2.25041 8.8605 2.24437 8.76728 2.25673 8.67562C2.2691 8.58395 2.29962 8.49567 2.34651 8.41594C3.25026 6.9075 5.99995 3.38672 12 3.38672C14.6001 3.38672 16.8806 4.06969 18.7748 5.41594C20.3339 6.52078 21.2076 7.77141 21.6239 8.37375C21.6766 8.44967 21.7137 8.53539 21.7329 8.62586C21.752 8.71633 21.7529 8.80971 21.7355 8.90052C21.718 8.99133 21.6825 9.07773 21.6312 9.15463C21.5798 9.23152 21.5136 9.29737 21.4364 9.34828C21.2786 9.45257 21.0864 9.49133 20.9005 9.45633C20.7147 9.42132 20.5498 9.31532 20.4407 9.16078C19.6875 8.0775 17.3906 4.78125 12 4.78125C6.73823 4.78125 4.35933 7.81453 3.58448 9.11531C3.52222 9.22394 3.43209 9.31397 3.3234 9.3761C3.2147 9.43823 3.09139 9.47022 2.9662 9.46875Z" fill="#161616"/>
<path d="M15.023 23.25C14.9632 23.2507 14.9035 23.2439 14.8454 23.2298C10.493 22.1517 8.86786 17.8008 8.80176 17.6198L8.79145 17.58C8.75582 17.4544 7.88254 14.4708 9.22317 12.7233C9.8377 11.9264 10.7724 11.5177 12.0066 11.5177C13.1541 11.5177 13.9819 11.8744 14.551 12.6127C15.0197 13.2155 15.2072 13.9589 15.3886 14.6752C15.7697 16.1667 16.0449 16.95 17.6288 17.0306C18.3244 17.0658 18.7815 16.6589 19.0407 16.3125C19.7414 15.368 19.8633 13.8281 19.335 12.4688C18.6563 10.7142 16.2474 7.40625 12 7.40625C10.1869 7.40625 8.52098 7.98891 7.18504 9.08391C6.07926 9.99094 5.20317 11.2716 4.78129 12.5878C3.99895 15.0384 5.02504 18.8906 5.03489 18.9258C5.05884 19.0154 5.06461 19.109 5.05184 19.2009C5.03907 19.2928 5.00803 19.3812 4.96054 19.461C4.91305 19.5407 4.85008 19.6101 4.77534 19.6651C4.7006 19.7201 4.6156 19.7596 4.52536 19.7813C4.34304 19.8297 4.14899 19.8049 3.98479 19.712C3.82058 19.6191 3.6993 19.4656 3.64692 19.2844C3.60004 19.1086 2.50411 15 3.40786 12.1678C4.39223 9.09891 7.4302 6.00516 12.0014 6.00516C14.1141 6.00516 16.11 6.72328 17.776 8.07938C19.066 9.13406 20.1197 10.5506 20.671 11.9667C21.3718 13.7747 21.1838 15.8039 20.1933 17.1295C19.5333 18.0136 18.5935 18.4758 17.5524 18.4256C14.8402 18.2897 14.3527 16.3964 13.9974 15.0155C13.6318 13.5989 13.3979 12.9159 12.0014 12.9159C11.2346 12.9159 10.696 13.1269 10.3608 13.5638C9.90379 14.1614 9.86817 15.0956 9.91879 15.7734C9.95201 16.2457 10.0321 16.7134 10.1579 17.1698C10.2694 17.4511 11.7221 21.0136 15.2011 21.8756C15.2911 21.8969 15.3759 21.9359 15.4506 21.9902C15.5253 22.0446 15.5885 22.1133 15.6365 22.1922C15.6845 22.2712 15.7163 22.359 15.73 22.4503C15.7438 22.5417 15.7393 22.6349 15.7168 22.7245C15.6743 22.8758 15.5835 23.0091 15.4583 23.1039C15.333 23.1988 15.1801 23.2501 15.023 23.25Z" fill="#161616"/>
<path d="M9.43629 22.9284C9.33874 22.9286 9.24214 22.9092 9.15227 22.8713C9.06239 22.8333 8.98108 22.7777 8.91317 22.7077C7.17129 20.8795 6.18598 18.8353 5.8152 16.2792V16.2656C5.60707 14.5734 5.91176 12.1777 7.40473 10.5305C8.50676 9.315 10.056 8.69719 12.0013 8.69719C14.3019 8.69719 16.1099 9.76688 17.2372 11.7858C18.0552 13.2525 18.2174 14.7141 18.2216 14.7741C18.2302 14.8666 18.2204 14.9599 18.1929 15.0486C18.1654 15.1373 18.1206 15.2198 18.0612 15.2912C18.0017 15.3626 17.9288 15.4216 17.8465 15.4647C17.7643 15.5079 17.6743 15.5345 17.5818 15.5428C17.3951 15.5631 17.2079 15.5091 17.0606 15.3925C16.9134 15.276 16.8179 15.1062 16.7947 14.9198C16.6713 14.0429 16.3875 13.1961 15.9575 12.4219C15.0838 10.8802 13.7544 10.0964 11.9961 10.0964C10.4774 10.0964 9.2891 10.5534 8.4716 11.4558C7.29317 12.7566 7.06535 14.7605 7.22707 16.0861C7.55192 18.3464 8.42051 20.1445 9.95426 21.7514C10.0183 21.818 10.0682 21.8968 10.1012 21.9831C10.1342 22.0694 10.1494 22.1614 10.1461 22.2537C10.1428 22.346 10.1209 22.4367 10.0819 22.5204C10.0428 22.6041 9.98727 22.6791 9.91864 22.7409C9.78646 22.8608 9.61469 22.9275 9.43629 22.9284Z" fill="#161616"/>
<path d="M17.4608 20.9147C15.9374 20.9147 14.6422 20.4928 13.6058 19.6542C11.5236 17.9766 11.2902 15.2442 11.2799 15.1289C11.2652 14.9396 11.3263 14.7523 11.4498 14.6081C11.5733 14.4639 11.749 14.3746 11.9383 14.3599C12.1275 14.3453 12.3149 14.4064 12.4591 14.5298C12.6033 14.6533 12.6926 14.829 12.7072 15.0183C12.7124 15.0586 12.9205 17.2936 14.5255 18.5808C15.4752 19.3392 16.7446 19.6402 18.3088 19.4644C18.4957 19.4417 18.6841 19.494 18.8326 19.6097C18.9811 19.7255 19.0778 19.8954 19.1015 20.0822C19.1117 20.1745 19.1034 20.2679 19.0772 20.357C19.051 20.446 19.0072 20.529 18.9486 20.601C18.89 20.673 18.8176 20.7326 18.7356 20.7763C18.6537 20.82 18.5639 20.847 18.4715 20.8556C18.136 20.8948 17.7986 20.9145 17.4608 20.9147ZM18.6646 2.28703C18.0702 1.90031 15.9627 0.75 11.9999 0.75C7.8402 0.75 5.72755 2.02078 5.26021 2.34375C5.22934 2.3627 5.20045 2.38468 5.17395 2.40938C5.17116 2.41208 5.16752 2.41374 5.16364 2.41406C5.08901 2.47922 5.02913 2.55954 4.98799 2.64966C4.94685 2.73979 4.92539 2.83765 4.92505 2.93672C4.92633 3.02959 4.94593 3.12129 4.98271 3.20657C5.0195 3.29185 5.07275 3.36904 5.13942 3.4337C5.20608 3.49837 5.28486 3.54924 5.37122 3.58341C5.45758 3.61757 5.54984 3.63436 5.6427 3.63281C5.79155 3.63271 5.9368 3.58708 6.05895 3.50203C6.07911 3.48703 7.89739 2.15109 12.0013 2.15109C16.1052 2.15109 17.9333 3.48234 17.953 3.49219C18.0778 3.58473 18.2294 3.6341 18.3847 3.63281C18.4777 3.63424 18.57 3.61729 18.6564 3.58295C18.7427 3.54861 18.8215 3.49755 18.8881 3.4327C18.9547 3.36785 19.0078 3.29049 19.0444 3.20505C19.081 3.11962 19.1004 3.02779 19.1015 2.93484C19.1015 2.79562 19.0599 2.65956 18.9821 2.54413C18.9042 2.4287 18.7937 2.33917 18.6646 2.28703Z" fill="#161616"/>
</svg>
