<svg width="22" height="22" viewBox="0 0 22 22" fill="none" xmlns="http://www.w3.org/2000/svg">
<path d="M10.9541 16.5C11.2749 16.5 11.5463 16.3891 11.7681 16.1672C11.9899 15.9454 12.1005 15.6744 12.0999 15.3542C12.0993 15.0339 11.9887 14.7626 11.7681 14.5402C11.5475 14.3177 11.2761 14.2071 10.9541 14.2083C10.632 14.2095 10.361 14.3205 10.141 14.5411C9.921 14.7617 9.81009 15.0327 9.80825 15.3542C9.80642 15.6756 9.91734 15.9469 10.141 16.1682C10.3647 16.3894 10.6357 16.5 10.9541 16.5ZM10.1291 12.9708H11.8249C11.8249 12.4667 11.8824 12.0694 11.9973 11.7792C12.1121 11.4889 12.4366 11.0917 12.9708 10.5875C13.368 10.1903 13.6812 9.81198 13.9103 9.45265C14.1395 9.09332 14.2541 8.66187 14.2541 8.15832C14.2541 7.30276 13.9409 6.64582 13.3145 6.18748C12.6881 5.72915 11.9471 5.49998 11.0916 5.49998C10.2208 5.49998 9.51431 5.72915 8.97225 6.18748C8.4302 6.64582 8.05192 7.19582 7.83742 7.83748L9.34992 8.43332C9.42631 8.15832 9.59834 7.8604 9.866 7.53957C10.1337 7.21873 10.5422 7.05832 11.0916 7.05832C11.5805 7.05832 11.9471 7.19215 12.1916 7.45982C12.436 7.72748 12.5583 8.02143 12.5583 8.34165C12.5583 8.64721 12.4666 8.93382 12.2833 9.20148C12.0999 9.46915 11.8708 9.71726 11.5958 9.94582C10.9235 10.5417 10.511 10.9923 10.3583 11.2979C10.2055 11.6035 10.1291 12.1611 10.1291 12.9708ZM10.9999 20.1667C9.73186 20.1667 8.5402 19.9262 7.42492 19.4452C6.30964 18.9643 5.3395 18.311 4.5145 17.4854C3.6895 16.6598 3.03653 15.6897 2.55559 14.575C2.07464 13.4603 1.83386 12.2687 1.83325 11C1.83264 9.73132 2.07342 8.53965 2.55559 7.42498C3.03775 6.31032 3.69073 5.34018 4.5145 4.51457C5.33828 3.68896 6.30842 3.03598 7.42492 2.55565C8.54142 2.07532 9.73309 1.83454 10.9999 1.83332C12.2668 1.8321 13.4584 2.07287 14.5749 2.55565C15.6914 3.03843 16.6616 3.6914 17.4853 4.51457C18.3091 5.33773 18.9624 6.30787 19.4452 7.42498C19.9279 8.5421 20.1684 9.73376 20.1666 11C20.1648 12.2662 19.924 13.4579 19.4443 14.575C18.9645 15.6921 18.3116 16.6622 17.4853 17.4854C16.6591 18.3086 15.689 18.9618 14.5749 19.4452C13.4609 19.9286 12.2692 20.1691 10.9999 20.1667ZM10.9999 18.3333C13.0471 18.3333 14.7812 17.6229 16.202 16.2021C17.6228 14.7812 18.3333 13.0472 18.3333 11C18.3333 8.95276 17.6228 7.21873 16.202 5.7979C14.7812 4.37707 13.0471 3.66665 10.9999 3.66665C8.9527 3.66665 7.21867 4.37707 5.79784 5.7979C4.377 7.21873 3.66659 8.95276 3.66659 11C3.66659 13.0472 4.377 14.7812 5.79784 16.2021C7.21867 17.6229 8.9527 18.3333 10.9999 18.3333Z" fill="#646464"/>
</svg>
