<svg width="22" height="22" viewBox="0 0 22 22" fill="none" xmlns="http://www.w3.org/2000/svg">
<path fill-rule="evenodd" clip-rule="evenodd" d="M1.83325 6.28559C1.83325 5.10478 2.30233 3.97234 3.13729 3.13738C3.97224 2.30242 5.10469 1.83334 6.2855 1.83334H10.9999C11.243 1.83334 11.4762 1.92992 11.6481 2.10183C11.82 2.27374 11.9166 2.5069 11.9166 2.75001C11.9166 2.99313 11.82 3.22628 11.6481 3.39819C11.4762 3.5701 11.243 3.66668 10.9999 3.66668H6.2855C5.59092 3.66668 4.92479 3.9426 4.43365 4.43374C3.94251 4.92488 3.66659 5.59101 3.66659 6.28559V15.7144C3.66659 16.409 3.94251 17.0751 4.43365 17.5663C4.92479 18.0574 5.59092 18.3333 6.2855 18.3333H15.7143C16.4089 18.3333 17.075 18.0574 17.5662 17.5663C18.0573 17.0751 18.3333 16.409 18.3333 15.7144V11C18.3333 10.7569 18.4298 10.5237 18.6017 10.3518C18.7736 10.1799 19.0068 10.0833 19.2499 10.0833C19.493 10.0833 19.7262 10.1799 19.8981 10.3518C20.07 10.5237 20.1666 10.7569 20.1666 11V15.7144C20.1666 16.8952 19.6975 18.0277 18.8626 18.8626C18.0276 19.6976 16.8951 20.1667 15.7143 20.1667H6.2855C5.10469 20.1667 3.97224 19.6976 3.13729 18.8626C2.30233 18.0277 1.83325 16.8952 1.83325 15.7144V6.28559Z" fill="#646464"/>
<path fill-rule="evenodd" clip-rule="evenodd" d="M13.8756 12.1174L11.8543 13.3366L10.9074 11.7663L12.9287 10.5472L12.9314 10.5453C13.0089 10.4987 13.0803 10.4427 13.1441 10.3785L17.7366 5.76218C17.7826 5.7158 17.8269 5.6678 17.8695 5.61826C18.1729 5.26443 18.6221 4.5641 18.0785 4.01776C17.6192 3.55576 16.9611 3.9921 16.5348 4.36701C16.4205 4.46781 16.3104 4.57332 16.2048 4.68326L16.1737 4.71443L11.6453 9.26568C11.5378 9.37256 11.4535 9.50052 11.3978 9.64151L10.6425 11.5418C10.6282 11.5775 10.6255 11.6169 10.6348 11.6543C10.6441 11.6916 10.6649 11.7251 10.6944 11.75C10.7238 11.7748 10.7603 11.7898 10.7987 11.7927C10.8371 11.7957 10.8745 11.7864 10.9074 11.7663L11.8543 13.3366C10.1997 14.3339 8.22433 12.6583 8.93933 10.8634L9.69558 8.9641C9.84282 8.59294 10.0643 8.25574 10.3464 7.97318L14.8738 3.42101L14.9004 3.39443C15.0352 3.25693 15.488 2.7931 16.0371 2.45943C16.3368 2.27885 16.8153 2.0396 17.4066 1.99376C18.0849 1.93968 18.8091 2.15326 19.3774 2.72435C19.8124 3.15407 20.086 3.72062 20.152 4.32851C20.1974 4.80233 20.125 5.28003 19.9412 5.7191C19.6753 6.37635 19.2317 6.85943 19.0364 7.05468L14.4439 11.671C14.2728 11.8427 14.0834 11.9915 13.8756 12.1174ZM17.9575 5.58526C17.9575 5.58526 17.9538 5.58801 17.9456 5.59076L17.9575 5.58526Z" fill="#646464"/>
</svg>
