<svg width="71" height="68" viewBox="0 0 71 68" fill="none" xmlns="http://www.w3.org/2000/svg">
<path d="M33.9998 67.3334C36.6665 67.3334 39.3332 67 41.6665 66.3334C40.3332 64.6667 38.9998 62.6667 38.3332 60.3334C36.9998 60.6667 35.3332 60.6667 33.9998 60.6667C19.3332 60.6667 7.33317 48.6667 7.33317 34C7.33317 19.3334 19.3332 7.33335 33.9998 7.33335C36.6665 7.33335 38.9998 7.66669 41.3332 8.33335L46.6665 3.00002C42.6665 1.66669 38.3332 0.666687 33.9998 0.666687C15.6665 0.666687 0.666504 15.6667 0.666504 34C0.666504 52.3334 15.6665 67.3334 33.9998 67.3334ZM15.6665 32.3334L20.3332 27.6667L30.6665 38L59.3332 9.33335L63.9998 14L30.6665 47.3334L15.6665 32.3334ZM57.3332 40.6667L53.1332 49.8334L43.9998 54L53.1332 58.2L57.3332 67.3334L61.4998 58.2L70.6665 54L61.4998 49.8334L57.3332 40.6667Z" fill="#404040"/>
</svg>
