<svg width="26" height="26" viewBox="0 0 26 26" fill="none" xmlns="http://www.w3.org/2000/svg">
<path d="M8.66675 11.9167V7.58333C8.66675 6.43406 9.12329 5.33186 9.93595 4.5192C10.7486 3.70655 11.8508 3.25 13.0001 3.25C14.1494 3.25 15.2516 3.70655 16.0642 4.5192C16.8769 5.33186 17.3334 6.43406 17.3334 7.58333V11.9167M16.2501 17.3333H16.2609M13.0109 17.3333H13.0217M9.77175 17.3333H9.78258M5.41675 14.0833C5.41675 13.5087 5.64502 12.9576 6.05135 12.5513C6.45768 12.1449 7.00878 11.9167 7.58341 11.9167H18.4167C18.9914 11.9167 19.5425 12.1449 19.9488 12.5513C20.3551 12.9576 20.5834 13.5087 20.5834 14.0833V20.5833C20.5834 21.158 20.3551 21.7091 19.9488 22.1154C19.5425 22.5217 18.9914 22.75 18.4167 22.75H7.58341C7.00878 22.75 6.45768 22.5217 6.05135 22.1154C5.64502 21.7091 5.41675 21.158 5.41675 20.5833V14.0833Z" stroke="#161616" stroke-width="2" stroke-linecap="round" stroke-linejoin="round"/>
</svg>
