<svg width="22" height="22" viewBox="0 0 22 22" fill="none" xmlns="http://www.w3.org/2000/svg">
<path d="M11.0001 0.916687L19.7084 5.95835V16.0417L11.0001 21.0834L2.29175 16.0417V5.95835L11.0001 0.916687ZM11.0001 3.0351L4.12508 7.01527V14.9848L11.0001 18.9649L17.8751 14.9848V7.01527L11.0001 3.0351ZM11.0001 14.6667C10.0276 14.6667 9.09499 14.2804 8.40736 13.5927C7.71972 12.9051 7.33342 11.9725 7.33342 11C7.33342 10.0276 7.71972 9.09493 8.40736 8.4073C9.09499 7.71966 10.0276 7.33335 11.0001 7.33335C11.9725 7.33335 12.9052 7.71966 13.5928 8.4073C14.2804 9.09493 14.6667 10.0276 14.6667 11C14.6667 11.9725 14.2804 12.9051 13.5928 13.5927C12.9052 14.2804 11.9725 14.6667 11.0001 14.6667ZM11.0001 12.8334C11.4863 12.8334 11.9526 12.6402 12.2964 12.2964C12.6403 11.9526 12.8334 11.4863 12.8334 11C12.8334 10.5138 12.6403 10.0475 12.2964 9.70366C11.9526 9.35984 11.4863 9.16669 11.0001 9.16669C10.5139 9.16669 10.0475 9.35984 9.70372 9.70366C9.3599 10.0475 9.16675 10.5138 9.16675 11C9.16675 11.4863 9.3599 11.9526 9.70372 12.2964C10.0475 12.6402 10.5139 12.8334 11.0001 12.8334Z" fill="#646464"/>
</svg>
